<?xml version="1.0" encoding="UTF-8"?>
<svg id="Capa_1" xmlns="http://www.w3.org/2000/svg" version="1.1" viewBox="0 0 40 40">
  <!-- Generator: Adobe Illustrator 29.7.1, SVG Export Plug-In . SVG Version: 2.1.1 Build 8)  -->
  <defs>
    <style>
      .st0 {
        fill: #fff;
      }

      .st1, .st2 {
        fill: #e5252e;
      }

      .st2 {
        stroke: #e5252e;
      }
    </style>
  </defs>
  <circle class="st1" cx="20" cy="20" r="20"/>
  <path class="st0" d="M9,10c-.55,0-1,.45-1,1s.45,1,1,1v-2ZM11.22,11l.98-.2c-.09-.47-.5-.8-.98-.8v1ZM10.69,13.41c.11.54.64.89,1.18.78.54-.11.89-.64.78-1.18l-1.96.39ZM13.44,21.05c-.55,0-1,.45-1,1s.45,1,1,1v-2ZM24.56,22.05v1c.38,0,.72-.21.89-.55l-.89-.45ZM29,13.21l.89.45c.16-.31.14-.68-.04-.97-.18-.3-.5-.48-.85-.48v1ZM11.67,12.21c-.55,0-1,.45-1,1s.45,1,1,1v-2ZM12.46,22.25c.11.54.64.89,1.18.78.54-.11.89-.64.78-1.18l-1.96.39ZM12.65,13.01c-.11-.54-.64-.89-1.18-.78-.54.11-.89.64-.78,1.18l1.96-.39ZM14.15,22.76c.39-.39.39-1.02,0-1.41-.39-.39-1.02-.39-1.41,0l1.41,1.42ZM10.9,24.59l-.71-.71.71.71ZM24.56,27.47c.55,0,1-.45,1-1s-.45-1-1-1v2ZM24.56,26.47h-1c0,.27.11.52.29.71l.71-.71ZM26.78,28.68l-.71.71c.19.19.44.29.71.29v-1ZM15.67,28.68l-.86-.5c-.09.15-.14.33-.14.5h1ZM15.67,30.89h-1c0,.18.05.35.14.5l.86-.5ZM9,12h2.22v-2h-2.22v2ZM10.24,11.2l.44,2.21,1.96-.39-.44-2.21-1.96.39ZM13.44,23.05h11.11v-2h-11.11v2ZM25.45,22.5l4.44-8.84-1.79-.9-4.44,8.84,1.79.9ZM29,12.21H11.67v2h17.33v-2ZM14.42,21.86l-1.78-8.84-1.96.39,1.78,8.84,1.96-.39ZM12.74,21.34l-2.55,2.53,1.41,1.42,2.55-2.53-1.41-1.42ZM10.19,23.88c-1.34,1.33-.38,3.6,1.49,3.6v-2s-.06-.01-.06-.02c-.01,0-.03-.03-.04-.05-.01-.03-.01-.05,0-.06,0,0,0-.02.03-.05l-1.41-1.42ZM11.68,27.47h12.87v-2h-12.87v2ZM25.56,26.47c0-.66.54-1.21,1.22-1.21v-2c-1.77,0-3.22,1.43-3.22,3.21h2ZM26.78,25.26c.68,0,1.22.55,1.22,1.21h2c0-1.78-1.45-3.21-3.22-3.21v2ZM28,26.47c0,.66-.54,1.21-1.22,1.21v2c1.77,0,3.22-1.43,3.22-3.21h-2ZM27.48,27.98l-2.22-2.21-1.41,1.42,2.22,2.21,1.41-1.42ZM16.53,29.19c.28-.47.84-.71,1.38-.57l.52-1.93c-1.41-.37-2.89.24-3.62,1.49l1.73,1ZM17.91,28.62c.54.14.9.62.9,1.17h2c0-1.46-.98-2.73-2.39-3.1l-.52,1.93ZM18.81,29.79c0,.54-.37,1.03-.9,1.17l.52,1.93c1.41-.37,2.39-1.64,2.39-3.1h-2ZM17.91,30.96c-.54.14-1.1-.09-1.38-.57l-1.73,1c.73,1.26,2.22,1.87,3.62,1.49l-.52-1.93ZM16.67,30.89v-2.21h-2v2.21h2Z"/>
  <circle class="st0" cx="29" cy="13" r="6"/>
  <path class="st2" d="M31.53,12.53h-2.05v-2.05c0-.26-.21-.47-.47-.47s-.47.21-.47.47v2.05h-2.05c-.26,0-.47.21-.47.47,0,.13.05.25.14.33.09.09.2.14.33.14h2.05v2.05c0,.13.05.25.14.33.09.09.2.14.33.14.26,0,.47-.21.47-.47v-2.05h2.05c.26,0,.47-.21.47-.47s-.21-.47-.47-.47Z"/>
</svg>