<?xml version="1.0" encoding="UTF-8"?>
<svg id="Capa_1" xmlns="http://www.w3.org/2000/svg" version="1.1" viewBox="0 0 48 48">
  <!-- Generator: Adobe Illustrator 29.7.1, SVG Export Plug-In . SVG Version: 2.1.1 Build 8)  -->
  <defs>
    <style>
      .st0, .st1 {
        fill: #fff;
      }

      .st2 {
        fill: #e5252e;
      }

      .st1 {
        fill-rule: evenodd;
        stroke: #fff;
        stroke-width: .8px;
      }

      .st3 {
        fill: #c7c7c7;
      }
    </style>
  </defs>
  <circle class="st0" cx="24" cy="24" r="20"/>
  <path class="st3" d="M13,14c-.55,0-1,.45-1,1s.45,1,1,1v-2ZM15.22,15l.98-.2c-.09-.47-.5-.8-.98-.8v1ZM14.69,17.41c.11.54.64.89,1.18.78.54-.11.89-.64.78-1.18l-1.96.39ZM17.44,25.05c-.55,0-1,.45-1,1s.45,1,1,1v-2ZM28.56,26.05v1c.38,0,.72-.21.89-.55l-.89-.45ZM33,17.21l.89.45c.16-.31.14-.68-.04-.97-.18-.3-.5-.48-.85-.48v1ZM15.67,16.21c-.55,0-1,.45-1,1s.45,1,1,1v-2ZM16.46,26.25c.11.54.64.89,1.18.78.54-.11.89-.64.78-1.18l-1.96.39ZM16.65,17.01c-.11-.54-.64-.89-1.18-.78-.54.11-.89.64-.78,1.18l1.96-.39ZM18.15,26.76c.39-.39.39-1.02,0-1.41-.39-.39-1.02-.39-1.41,0l1.41,1.42ZM14.9,28.59l-.71-.71.71.71ZM28.56,31.47c.55,0,1-.45,1-1s-.45-1-1-1v2ZM28.56,30.47h-1c0,.27.11.52.29.71l.71-.71ZM30.78,32.68l-.71.71c.19.19.44.29.71.29v-1ZM19.67,32.68l-.86-.5c-.09.15-.14.33-.14.5h1ZM19.67,34.89h-1c0,.18.05.35.14.5l.86-.5ZM13,16h2.22v-2h-2.22v2ZM14.24,15.2l.44,2.21,1.96-.39-.44-2.21-1.96.39ZM17.44,27.05h11.11v-2h-11.11v2ZM29.45,26.5l4.44-8.84-1.79-.9-4.44,8.84,1.79.9ZM33,16.21H15.67v2h17.33v-2ZM18.42,25.86l-1.78-8.84-1.96.39,1.78,8.84,1.96-.39ZM16.74,25.34l-2.55,2.53,1.41,1.42,2.55-2.53-1.41-1.42ZM14.19,27.88c-1.34,1.33-.38,3.6,1.49,3.6v-2s-.06-.01-.06-.02c-.01,0-.03-.03-.04-.05-.01-.03-.01-.05,0-.06,0,0,0-.02.03-.05l-1.41-1.42ZM15.68,31.47h12.87v-2h-12.87v2ZM29.56,30.47c0-.66.54-1.21,1.22-1.21v-2c-1.77,0-3.22,1.43-3.22,3.21h2ZM30.78,29.26c.68,0,1.22.55,1.22,1.21h2c0-1.78-1.45-3.21-3.22-3.21v2ZM32,30.47c0,.66-.54,1.21-1.22,1.21v2c1.77,0,3.22-1.43,3.22-3.21h-2ZM31.48,31.98l-2.22-2.21-1.41,1.42,2.22,2.21,1.41-1.42ZM20.53,33.19c.28-.47.84-.71,1.38-.57l.52-1.93c-1.41-.37-2.89.24-3.62,1.49l1.73,1ZM21.91,32.62c.54.14.9.62.9,1.17h2c0-1.46-.98-2.73-2.39-3.1l-.52,1.93ZM22.81,33.79c0,.54-.37,1.03-.9,1.17l.52,1.93c1.41-.37,2.39-1.64,2.39-3.1h-2ZM21.91,34.96c-.54.14-1.1-.09-1.38-.57l-1.73,1c.73,1.26,2.22,1.87,3.62,1.49l-.52-1.93ZM20.67,34.89v-2.21h-2v2.21h2Z"/>
  <circle class="st2" cx="32" cy="16" r="6"/>
  <path class="st1" d="M34.52,14.24c-.24-.21-.6-.19-.81.04l-2.6,2.9-1.14-1.16c-.22-.22-.58-.23-.81,0-.22.22-.23.58,0,.81l1.57,1.59c.11.11.25.17.41.17h.01c.16,0,.31-.07.41-.19l3-3.36c.21-.23.19-.6-.04-.81Z"/>
</svg>