<?xml version="1.0" encoding="UTF-8"?>
<svg id="Capa_1" xmlns="http://www.w3.org/2000/svg" version="1.1" viewBox="0 0 90 58">
  <!-- Generator: Adobe Illustrator 29.7.1, SVG Export Plug-In . SVG Version: 2.1.1 Build 8)  -->
  <defs>
    <style>
      .st0 {
        fill: #e5252e;
        fill-rule: evenodd;
      }
    </style>
  </defs>
  <path class="st0" d="M85.47,0H4.53C2.03,0,0,2.03,0,4.53v48.74c0,2.5,2.03,4.53,4.53,4.53h80.93c2.5,0,4.53-2.03,4.53-4.53V4.53c0-2.5-2.03-4.53-4.53-4.53ZM44.95,3.4h38.82l-38.76,30.03L6.24,3.4h38.71ZM85.47,54.41c.62,0,1.13-.51,1.13-1.13V5.8l-30.4,23.56,21.08,16.36h-.02c.33.35.54.81.54,1.32,0,1.03-.83,1.86-1.86,1.86-.51,0-.97-.21-1.31-.54h0s-21.41-16.7-21.41-16.7l-6.42,4.97c-.48.42-1.11.69-1.8.69s-1.32-.27-1.8-.69l-6.42-4.97-21.41,16.7h0c-.34.33-.8.54-1.31.54-1.03,0-1.86-.83-1.86-1.86,0-.51.21-.97.54-1.31h-.01s21.08-16.37,21.08-16.37L3.4,5.8v47.47c0,.62.51,1.13,1.13,1.13h80.93Z"/>
</svg>