<?xml version="1.0" encoding="UTF-8"?>
<svg id="Capa_1" xmlns="http://www.w3.org/2000/svg" version="1.1" viewBox="0 0 30 27">
  <!-- Generator: Adobe Illustrator 29.7.1, SVG Export Plug-In . SVG Version: 2.1.1 Build 8)  -->
  <defs>
    <style>
      .st0 {
        fill: #e5252e;
      }
    </style>
  </defs>
  <path d="M4,2c-.55,0-1,.45-1,1s.45,1,1,1v-2ZM6.22,3l.98-.2c-.09-.47-.5-.8-.98-.8v1ZM5.69,5.41c.11.54.64.89,1.18.78.54-.11.89-.64.78-1.18l-1.96.39ZM8.44,13.05c-.55,0-1,.45-1,1s.45,1,1,1v-2ZM19.56,14.05v1c.38,0,.72-.21.89-.55l-.89-.45ZM24,5.21l.89.45c.16-.31.14-.68-.04-.97s-.5-.48-.85-.48v1ZM6.67,4.21c-.55,0-1,.45-1,1s.45,1,1,1v-2ZM7.46,14.25c.11.54.64.89,1.18.78.54-.11.89-.64.78-1.18l-1.96.39ZM7.65,5.01c-.11-.54-.64-.89-1.18-.78-.54.11-.89.64-.78,1.18l1.96-.39ZM9.15,14.76c.39-.39.39-1.02,0-1.41-.39-.39-1.02-.39-1.41,0l1.41,1.42ZM5.9,16.59l-.71-.71.71.71ZM19.56,19.47c.55,0,1-.45,1-1s-.45-1-1-1v2ZM19.56,18.47h-1c0,.27.11.52.29.71l.71-.71ZM21.78,20.68l-.71.71c.19.19.44.29.71.29v-1ZM10.67,20.68l-.86-.5c-.09.15-.14.33-.14.5h1ZM10.67,22.89h-1c0,.18.05.35.14.5l.86-.5ZM4,4h2.22v-2h-2.22v2ZM5.24,3.2l.44,2.21,1.96-.39-.44-2.21-1.96.39ZM8.44,15.05h11.11v-2h-11.11v2ZM20.45,14.5l4.44-8.84-1.79-.9-4.44,8.84,1.79.9ZM24,4.21H6.67v2h17.33v-2ZM9.42,13.86l-1.78-8.84-1.96.39,1.78,8.84,1.96-.39ZM7.74,13.34l-2.55,2.53,1.41,1.42,2.55-2.53-1.41-1.42ZM5.19,15.88c-1.34,1.33-.38,3.6,1.49,3.6v-2s-.06-.01-.06-.02c-.01,0-.03-.03-.04-.05-.01-.03-.01-.05,0-.06,0,0,0-.02.03-.05l-1.41-1.42ZM6.68,19.47h12.87v-2H6.68v2ZM20.56,18.47c0-.66.54-1.21,1.22-1.21v-2c-1.77,0-3.22,1.43-3.22,3.21h2ZM21.78,17.26c.68,0,1.22.55,1.22,1.21h2c0-1.78-1.45-3.21-3.22-3.21v2ZM23,18.47c0,.66-.54,1.21-1.22,1.21v2c1.77,0,3.22-1.43,3.22-3.21h-2ZM22.48,19.98l-2.22-2.21-1.41,1.42,2.22,2.21,1.41-1.42ZM11.53,21.19c.28-.47.84-.71,1.38-.57l.52-1.93c-1.41-.37-2.89.24-3.62,1.49l1.73,1ZM12.91,20.62c.54.14.9.62.9,1.17h2c0-1.46-.98-2.73-2.39-3.1l-.52,1.93ZM13.81,21.79c0,.54-.37,1.03-.9,1.17l.52,1.93c1.41-.37,2.39-1.64,2.39-3.1h-2ZM12.91,22.96c-.54.14-1.1-.09-1.38-.57l-1.73,1c.73,1.26,2.22,1.87,3.62,1.49l-.52-1.93ZM11.67,22.89v-2.21h-2v2.21h2Z"/>
  <circle class="st0" cx="23.5" cy="5" r="5"/>
</svg>