<?xml version="1.0" encoding="UTF-8"?>
<svg id="Capa_1" xmlns="http://www.w3.org/2000/svg" version="1.1" viewBox="0 0 566.93 566.93">
  <!-- Generator: Adobe Illustrator 29.7.1, SVG Export Plug-In . SVG Version: 2.1.1 Build 8)  -->
  <defs>
    <style>
      .st0 {
        fill: #e5252e;
      }

      .st1 {
        fill: #62ab39;
      }
    </style>
  </defs>
  <g>
    <path class="st1" d="M333.2,125.11c-.33,31.82-9.59,54.62-29.35,73.49-9.57,9.13-16.64,8.62-25.88-.2-24.97-23.84-32.31-53.16-27.91-86.14,3.64-27.31,15.81-51.57,28.84-75.42,8.42-15.43,17.2-10.85,24,.49,17.09,28.49,30.24,58.5,30.31,87.77Z"/>
    <path class="st1" d="M259.5,215.69c-48.55,10.31-82.78-6.91-110.22-40.32-14.26-17.36-25.6-36.79-35.94-56.89-7.35-14.29-1.94-16.34,10.82-15.67,30.21,1.6,59.62,6.62,87.84,18.01,8.32,3.35,13.14,8.13,13.82,17.59,2.05,28.37,12.79,53.4,33.69,77.29Z"/>
    <path class="st1" d="M322.65,214.71c22.83-24.88,33.02-52.34,34.75-83.1.36-6.44,3.06-10.73,9.64-13,27.23-9.39,55.11-14.67,83.96-15.07,10.28-.14,13.12,3.55,8.82,13.1-17.76,39.53-40.54,74.75-81.29,94.32-16.98,8.16-34.72,10.81-55.89,3.75Z"/>
  </g>
  <path class="st0" d="M457.59,384.82c0,93.09-73.76,155.14-161,155.14s-162.75-62.06-162.75-155.14,73.77-154.56,162.75-154.56,161,62.06,161,154.56ZM367.43,384.82c0-45.66-34.54-76.11-70.84-76.11s-72.59,30.44-72.59,76.11,34.54,76.11,72.59,76.11,70.84-29.86,70.84-76.11Z"/>
</svg>