<?xml version="1.0" encoding="UTF-8"?>
<svg id="Capa_1" xmlns="http://www.w3.org/2000/svg" version="1.1" viewBox="0 0 564.5 206.45">
  <!-- Generator: Adobe Illustrator 29.7.1, SVG Export Plug-In . SVG Version: 2.1.1 Build 8)  -->
  <defs>
    <style>
      .st0 {
        fill: #e5252e;
      }

      .st1 {
        fill: #1d1d1b;
      }

      .st2 {
        fill: #62ab39;
      }
    </style>
  </defs>
  <g>
    <path class="st2" d="M180.46,44.26c-.07,6.69-2.02,11.48-6.17,15.45-2.01,1.92-3.5,1.81-5.44-.04-5.25-5.01-6.79-11.17-5.87-18.1.77-5.74,3.32-10.84,6.06-15.85,1.77-3.24,3.62-2.28,5.04.1,3.59,5.99,6.36,12.3,6.37,18.45Z"/>
    <path class="st2" d="M164.97,63.3c-10.2,2.17-17.4-1.45-23.17-8.47-3-3.65-5.38-7.73-7.55-11.96-1.54-3-.41-3.43,2.27-3.29,6.35.34,12.53,1.39,18.46,3.78,1.75.71,2.76,1.71,2.9,3.7.43,5.96,2.69,11.22,7.08,16.24Z"/>
    <path class="st2" d="M178.24,63.09c4.8-5.23,6.94-11,7.3-17.47.08-1.35.64-2.25,2.03-2.73,5.72-1.97,11.58-3.08,17.64-3.17,2.16-.03,2.76.75,1.85,2.75-3.73,8.31-8.52,15.71-17.08,19.82-3.57,1.71-7.3,2.27-11.75.79Z"/>
  </g>
  <g>
    <path class="st1" d="M108.42,81.12c.37,2.95.49,5.41.49,7.51,0,24.98-17.84,42.94-42.7,42.94s-44.42-18.83-44.42-43.06,19.32-43.07,44.05-43.07c18.33,0,34.45,8.61,40.24,24.73l-19.56,5.66c-4.8-9.35-12.67-11.81-20.67-11.81-13.41,0-23.62,10.58-23.62,24.49s10.46,24.61,24.24,24.61c10.83,0,18.7-5.66,21.78-14.77h-25.22v-17.23h45.4Z"/>
    <path class="st1" d="M129.95,108.69c0,3.2,2.34,5.41,5.91,5.41,1.72,0,4.31-.74,7.14-1.72l3.08,15.38c-3.57,1.72-7.38,3.81-14.52,3.81-12.8,0-21.29-8.61-21.29-21.41V34.98h19.69v73.7Z"/>
    <path class="st0" d="M206.6,98.84c0,19.56-15.5,32.61-33.84,32.61s-34.21-13.04-34.21-32.61,15.5-32.48,34.21-32.48,33.84,13.04,33.84,32.48ZM187.65,98.84c0-9.6-7.26-16-14.89-16s-15.26,6.4-15.26,16,7.26,16,15.26,16,14.89-6.28,14.89-16Z"/>
    <path class="st1" d="M276.61,98.84c0,19.56-13.78,32.73-30.15,32.73-8,0-14.4-2.46-19.19-6.77v4.92h-19.69V34.98h19.69v37.9c4.8-4.31,11.2-6.77,19.19-6.77,16.36,0,30.15,13.29,30.15,32.73ZM257.29,98.84c0-9.47-6.28-16-14.89-16-8,0-15.13,6.52-15.13,16s7.14,16,15.13,16c8.61,0,14.89-6.4,14.89-16Z"/>
    <path class="st1" d="M333.7,90.6v39.13h-18.95v-4.55c-4.31,3.69-10.21,6.4-18.46,6.4-13.78,0-23.01-8-23.01-20.18s9.23-19.93,25.72-19.93h15.75v-1.23c0-5.17-3.57-8.61-8.74-8.61-5.91,0-9.35,2.34-10.34,7.75l-18.58-3.81c2.71-11.94,13.53-19.44,28.3-19.44,17.35,0,28.3,8.74,28.3,24.49ZM314.75,105.36v-1.35h-13.54c-4.92,0-8,2.58-8,6.4s3.45,6.4,8.61,6.4c6.77,0,12.92-4.55,12.92-11.44Z"/>
    <path class="st1" d="M355.35,108.69c0,3.2,2.34,5.41,5.91,5.41,1.72,0,4.31-.74,7.14-1.72l3.08,15.38c-3.57,1.72-7.38,3.81-14.52,3.81-12.8,0-21.29-8.61-21.29-21.41V34.98h19.69v73.7Z"/>
    <path class="st1" d="M432.99,130.96c0,19.07-16.24,29.53-36.3,29.53-14.15,0-24.86-4.92-30.88-14.89l16.37-10.09c4.55,5.54,8.12,7.63,14.52,7.63,8.86,0,16.61-4.43,16.61-14.15v-4.18c-4.8,4.31-11.2,6.77-19.19,6.77-16.37,0-30.15-13.17-30.15-32.73s13.78-32.73,30.15-32.73c8,0,14.4,2.46,19.19,6.77v-4.92h19.69v63ZM413.3,98.84c0-9.47-7.14-16-15.13-16-8.61,0-14.89,6.52-14.89,16s6.28,16,14.89,16c8,0,15.13-6.4,15.13-16Z"/>
    <path class="st1" d="M483.43,67.59l-.86,19.69h-3.57c-13.78,0-21.29,7.14-21.29,23.13v19.32h-19.69v-61.77h19.69v11.81c4.43-7.38,11.2-12.67,21.29-12.67,1.72,0,2.95.12,4.43.49Z"/>
    <path d="M508.18,52.38c-3.81-9.58.74-16.33,7.93-22.17-1.48,3.64-.93,7.04.8,10.66,5.56-5.83,13.02-7.2,20.92-9.9-6.71,7.87-12.7,15.14-19,22.12-2.11,2.33-3.33,3.65.73,4.7,1.02.26,2.06.6,1.58,2.3-1.26,4.43,1.32,6.67,5,8.27,9.92,4.31,16.61,11.62,19.47,22.07,4.66,16.99-3.72,32.99-20.48,38.59-14.49,4.84-28.14,2.6-39.04-8.32-13.91-13.94-10.55-37.55,6.3-49.09,1.61-1.1,3.32-2.06,4.87-3.23,5.3-3.97,5.66-5.86,2.36-11.43-.51-.87-1.9-1.89-.54-2.83,1.56-1.09,2.57-3.48,5.23-2.52,1.1.4,2.08,1.46,3.86.78ZM510.4,80.71c1.15,2.2.61,3.57.45,4.93-.69,6.17-3.63,11.66-5.32,17.53-1.93,6.68-1.92,13.22,1.5,19.44,2.22,4.04,7.01,4.04,9.23.05,1.36-2.44,2.05-5.13,2.73-7.84,1.91-7.61-1.05-14.56-2.77-21.67-.95-3.93-2.07-7.8-1.39-11.95,1.62,4.75,3.6,9.29,5.66,13.8,2.07,4.52,3.58,9.24,4.75,15.12,2.63-13.47.7-22.98-6.76-35.8-1.61-2.76-4.11-5.35-4.18-8.54-.12-4.78-3.17-5.28-6.82-6.23.86,5.41-1.49,9.09-5.01,12.12-1.89,1.62-4.04,2.96-6.15,4.3-10.77,6.85-15.55,19.83-11.63,31.69,1.62,4.88,4.62,8.79,8.14,10.57-7.07-13.94-6.28-20.46,4.09-32.54,4.13-4.82,8.36-9.55,11.22-16.67.32,5.34-1.18,8.9-3.08,12.29-2.8,4.98-5.89,9.79-8.61,14.8-4.92,9.08-2.5,20.66,5.52,27.2.48.39,1.04.97,1.82.05-6.93-10.49-6.44-20.84.83-31.06,2.39-3.36,4.35-7,5.79-11.58Z"/>
  </g>
</svg>